<svg xmlns="http://www.w3.org/2000/svg" viewBox="1 1 62 62"><g><path fill="#b5b5b5" d="M6 54V20a2 2 0 0 1 2-2h48a2 2 0 0 1 2 2v34" opacity="1" data-original="#b5b5b5"/><path fill="#f2f2f2" d="M10 22h44v32H10z" opacity="1" data-original="#f2f2f2"/><path fill="#ffffff" d="M10 27h40v27H10z" opacity="1" data-original="#ffffff"/><rect width="24" height="42" x="20" y="6" fill="#78a0d4" rx="2" opacity="1" data-original="#78a0d4"/><path fill="#83b0e2" d="M20 46a2 2 0 0 0 2 2h18V9H20z" opacity="1" data-original="#83b0e2"/><path fill="#3b5892" d="M44 44v2a2 2 0 0 1-2 2H22a2 2 0 0 1-2-2v-2z" opacity="1" data-original="#3b5892"/><path fill="#cccccc" d="M4 54h56a2 2 0 0 1 2 2v2a4 4 0 0 1-4 4H6a4 4 0 0 1-4-4v-2a2 2 0 0 1 2-2z" opacity="1" data-original="#cccccc"/><path fill="#b5b5b5" d="m25 54 3 4h8l3-4" opacity="1" data-original="#b5b5b5"/><path fill="#fce797" d="M37 10 24 27h7l-3 13 12-19h-6z" opacity="1" data-original="#fce797"/><path fill="#3b5892" d="M27 6V2h10v4" opacity="1" data-original="#3b5892"/><path d="M60 53h-1V20a3 3 0 0 0-3-3H45V8a3 3 0 0 0-3-3h-4V2a1 1 0 0 0-1-1H27a1 1 0 0 0-1 1v3h-4a3 3 0 0 0-3 3v9H8a3 3 0 0 0-3 3v33H4a3 3 0 0 0-3 3v2a5.006 5.006 0 0 0 5 5h52a5.006 5.006 0 0 0 5-5v-2a3 3 0 0 0-3-3zm-4-34a1 1 0 0 1 1 1v33h-2V22a1 1 0 0 0-1-1h-9v-2zM11 53V23h8v23a3 3 0 0 0 3 3h20a3 3 0 0 0 3-3V23h8v30zm26 2-1.5 2h-7L27 55zM21 45h22v1a1 1 0 0 1-1 1H22a1 1 0 0 1-1-1zm7-42h8v2h-8zm-6 4h20a1 1 0 0 1 1 1v35H21V8a1 1 0 0 1 1-1zM7 20a1 1 0 0 1 1-1h11v2h-9a1 1 0 0 0-1 1v31H7zm54 38a3 3 0 0 1-3 3H6a3 3 0 0 1-3-3v-2a1 1 0 0 1 1-1h20.5l2.7 3.6a1 1 0 0 0 .8.4h8a1 1 0 0 0 .8-.4l2.7-3.6H60a1 1 0 0 1 1 1z" fill="#000000" opacity="1" data-original="#000000"/><path d="M24 28h5.743l-2.718 11.775a1 1 0 0 0 1.821.759l12-19A1 1 0 0 0 40 20h-4.69l2.655-9.737a1 1 0 0 0-1.759-.87l-13 17A1 1 0 0 0 24 28zm10.691-13.334-1.656 6.071A1 1 0 0 0 34 22h4.186L30.3 34.489l1.677-7.264A1 1 0 0 0 31 26h-4.977z" fill="#000000" opacity="1" data-original="#000000"/></g></svg>