<svg xmlns="http://www.w3.org/2000/svg" version="1.1" xmlns:xlink="http://www.w3.org/1999/xlink" width="512" height="512" x="0" y="0" viewBox="0 0 512 512" style="enable-background:new 0 0 512 512" xml:space="preserve"><g><path fill="#e04446" d="M24 168v40l32 32-16 24 80 64 40 8 56-8v24l-8 24 40 32 40-32 40 32 80-56 32-64-32-40 16-32-32 8-16-24 32-24 16 8 56-48-8-16 16-8V72l-24 16-16-16h-16l-16-32h-40v48h-24v24l32 8-40 24h-16l-8 24-40 16-72-16-8-24-32-8v-24l-16-16-64 32v32zM327.015 432.985l-12.492 12.492a14.881 14.881 0 0 0 0 21.046 14.881 14.881 0 0 0 23.283-2.867l9.09-15.149a12.706 12.706 0 0 0-1.911-15.522 12.706 12.706 0 0 0-17.97 0zM436.973 364.107a36.216 36.216 0 0 0 9.526 34.392l2.668 2.668a15.635 15.635 0 0 0 16 3.777 15.635 15.635 0 0 0 9.889-19.777l-7.413-22.238A15.984 15.984 0 0 0 452.48 352a15.984 15.984 0 0 0-15.507 12.107z" opacity="1" data-original="#e04446"/><g fill="#fdca77"><path d="m224 200 12.952 39.862h41.913l-33.908 24.636 12.952 39.862L224 279.724l-33.909 24.636 12.952-39.862-33.908-24.636h41.913z" fill="#fdca77" opacity="1" data-original="#fdca77"/><circle cx="288" cy="336" r="8" fill="#fdca77" opacity="1" data-original="#fdca77"/><circle cx="312" cy="304" r="8" fill="#fdca77" opacity="1" data-original="#fdca77"/><circle cx="320" cy="264" r="8" fill="#fdca77" opacity="1" data-original="#fdca77"/><circle cx="312" cy="216" r="8" fill="#fdca77" opacity="1" data-original="#fdca77"/></g></g></svg>