<svg xmlns="http://www.w3.org/2000/svg" version="1.1" xmlns:xlink="http://www.w3.org/1999/xlink" width="512" height="512" x="0" y="0" viewBox="0 0 512 512" style="enable-background:new 0 0 512 512" xml:space="preserve"><g><path fill="#91e0e8" d="M501 245c0 135.309-109.691 245-245 245S11 380.309 11 245 120.691 0 256 0s245 109.691 245 245zm0 0" opacity="1" data-original="#91e0e8"/><path fill="#445ea0" d="M470 394.105V110.461c0-5.5-4.5-10-10-10H52c-5.5 0-10 4.5-10 10v283.644zm0 0" opacity="1" data-original="#445ea0"/><path fill="#2e4c89" d="M69 369.652c-2.207 0-4-1.793-4-4v-222c0-2.203 1.793-4 4-4h3v-29.187c0-5.5 4.5-10 10-10H52c-5.5 0-10 4.5-10 10v283.64h30v-24.453zm0 0" opacity="1" data-original="#2e4c89"/><path fill="#293d7c" d="M512 429.2c0 5.5-4.5 10-10 10H10c-5.5 0-10-4.5-10-10v-26.095c0-5.5 4.5-10 10-10h492c5.5 0 10 4.5 10 10zm0 0" opacity="1" data-original="#293d7c"/><path fill="#1a2b63" d="M30 429.2v-26.095c0-5.5 4.5-10 10-10H10c-5.5 0-10 4.5-10 10V429.2c0 5.5 4.5 10 10 10h30c-5.5 0-10-4.5-10-10zm0 0" opacity="1" data-original="#1a2b63"/><path fill="#02af8e" d="M69 370.652c-2.75 0-5-2.25-5-5v-222c0-2.75 2.25-5 5-5h374c2.75 0 5 2.25 5 5v222c0 2.75-2.25 5-5 5zm0 0" opacity="1" data-original="#02af8e"/><path fill="#159e97" d="M94 365.652v-222c0-2.75 2.25-5 5-5H69c-2.75 0-5 2.25-5 5v222c0 2.75 2.25 5 5 5h30c-2.75 0-5-2.25-5-5zm0 0" opacity="1" data-original="#159e97"/><path fill="#1a2b63" d="M263.5 120.652a7.5 7.5 0 1 1-15 0 7.5 7.5 0 0 1 15 0zm0 0" opacity="1" data-original="#1a2b63"/><path fill="#ffaf10" d="M473 417.152a7.5 7.5 0 1 1-15 0 7.5 7.5 0 0 1 15 0zm0 0" opacity="1" data-original="#ffaf10"/><path fill="#3eb7ff" d="M445.5 417.152a7.5 7.5 0 1 1-15 0 7.5 7.5 0 0 1 15 0zm0 0" opacity="1" data-original="#3eb7ff"/><path fill="#60d882" d="m208.543 393.105 11.5 16c1.605 2.235 5.168 4.063 7.918 4.063h56.078c2.75 0 6.313-1.828 7.918-4.063l11.5-16zm0 0" opacity="1" data-original="#60d882"/><path fill="#37c47a" d="m240.5 409.105-11.5-16h-20.457l11.5 16c1.605 2.235 5.168 4.063 7.918 4.063h20.457c-2.75 0-6.313-1.828-7.918-4.063zm0 0" opacity="1" data-original="#37c47a"/><path fill="#1a2b63" d="M146.5 423.152h-90a7.497 7.497 0 0 1-7.5-7.5 7.5 7.5 0 0 1 7.5-7.5h90a7.5 7.5 0 0 1 7.5 7.5c0 4.145-3.355 7.5-7.5 7.5zm0 0" opacity="1" data-original="#1a2b63"/><path fill="#37c47a" d="M300.602 51.176a7.475 7.475 0 0 1-5.301-2.2c-10.48-10.476-24.434-16.25-39.297-16.25-14.867 0-28.824 5.774-39.305 16.25a7.497 7.497 0 0 1-10.605 0 7.497 7.497 0 0 1 0-10.605c13.312-13.312 31.039-20.64 49.91-20.64 18.867 0 36.594 7.328 49.902 20.64a7.497 7.497 0 0 1 0 10.606 7.477 7.477 0 0 1-5.304 2.199zm0 0" opacity="1" data-original="#37c47a"/><path fill="#02af8e" d="M285.98 68.773a7.477 7.477 0 0 1-5.304-2.199c-13.61-13.605-35.746-13.605-49.352 0a7.497 7.497 0 0 1-10.605 0 7.497 7.497 0 0 1 0-10.605c9.41-9.41 21.941-14.594 35.281-14.594 13.344 0 25.871 5.184 35.281 14.594a7.497 7.497 0 0 1 0 10.605 7.475 7.475 0 0 1-5.3 2.2zm0 0" opacity="1" data-original="#02af8e"/><path fill="#0f9390" d="M271.355 86.5c-1.917 0-3.84-.73-5.304-2.2-2.684-2.683-6.254-4.163-10.051-4.163s-7.367 1.48-10.05 4.164a7.5 7.5 0 0 1-10.606.004 7.5 7.5 0 0 1-.004-10.606c5.52-5.52 12.855-8.562 20.66-8.562s15.145 3.043 20.66 8.562a7.497 7.497 0 0 1-5.305 12.801zm0 0" opacity="1" data-original="#0f9390"/><path fill="#ffffff" d="M160.5 138.652h191v232h-191zm0 0" opacity="1" data-original="#ffffff"/><path fill="#eef6ff" d="M160.5 138.652H176v232h-15.5zm0 0" opacity="1" data-original="#eef6ff"/><g fill="#999cad"><path d="M284 172.5h-56a7.5 7.5 0 1 1 0-15h56a7.5 7.5 0 1 1 0 15zM312.395 208.5h-112.79a7.5 7.5 0 1 1 0-15h112.79c4.14 0 7.5 3.36 7.5 7.5s-3.36 7.5-7.5 7.5zM312.395 229.5h-112.79a7.5 7.5 0 1 1 0-15h112.79c4.14 0 7.5 3.36 7.5 7.5s-3.36 7.5-7.5 7.5zM312.395 250.5h-112.79a7.5 7.5 0 1 1 0-15h112.79c4.14 0 7.5 3.36 7.5 7.5s-3.36 7.5-7.5 7.5zM250 271.5h-50.395a7.5 7.5 0 1 1 0-15H250a7.5 7.5 0 1 1 0 15zM312.395 302.5h-112.79a7.5 7.5 0 1 1 0-15h112.79c4.14 0 7.5 3.36 7.5 7.5s-3.36 7.5-7.5 7.5zM312.395 323.5h-112.79a7.5 7.5 0 1 1 0-15h112.79c4.14 0 7.5 3.36 7.5 7.5s-3.36 7.5-7.5 7.5zM312.395 344.5h-112.79a7.5 7.5 0 1 1 0-15h112.79c4.14 0 7.5 3.36 7.5 7.5s-3.36 7.5-7.5 7.5zm0 0" fill="#999cad" opacity="1" data-original="#999cad"/></g><path fill="#ffffff" d="M432 208c0 2.75-2.25 5-5 5h-50c-2.75 0-5-2.25-5-5v-36c0-2.75 2.25-5 5-5h50c2.75 0 5 2.25 5 5zm0 0" opacity="1" data-original="#ffffff"/><path fill="#ffd00d" d="M432 274c0 2.75-2.25 5-5 5h-50c-2.75 0-5-2.25-5-5v-36c0-2.75 2.25-5 5-5h50c2.75 0 5 2.25 5 5zm0 0" opacity="1" data-original="#ffd00d"/><path fill="#eef6ff" d="M387 208v-36c0-2.75 2.25-5 5-5h-15c-2.75 0-5 2.25-5 5v36c0 2.75 2.25 5 5 5h15c-2.75 0-5-2.25-5-5zm0 0" opacity="1" data-original="#eef6ff"/><path fill="#edc10a" d="M387 274v-36c0-2.75 2.25-5 5-5h-15c-2.75 0-5 2.25-5 5v36c0 2.75 2.25 5 5 5h15c-2.75 0-5-2.25-5-5zm0 0" opacity="1" data-original="#edc10a"/><path fill="#91e0e8" d="M144 347c0 2.75-2.25 5-5 5H89c-2.75 0-5-2.25-5-5v-36c0-2.75 2.25-5 5-5h50c2.75 0 5 2.25 5 5zm0 0" opacity="1" data-original="#91e0e8"/><path fill="#6dc3ed" d="M99 347v-36c0-2.75 2.25-5 5-5H89c-2.75 0-5 2.25-5 5v36c0 2.75 2.25 5 5 5h15c-2.75 0-5-2.25-5-5zm0 0" opacity="1" data-original="#6dc3ed"/></g></svg>