<svg xmlns="http://www.w3.org/2000/svg" version="1.1" xmlns:xlink="http://www.w3.org/1999/xlink" width="512" height="512" x="0" y="0" viewBox="0 0 512 512" style="enable-background:new 0 0 512 512" xml:space="preserve"><g><path fill="#eaeff0" d="M510.016 399.135 458.667 320c-2.005-2.807-7.224-10.667-10.667-10.667H64c-3.443 0-8.661 7.859-10.667 10.667L1.984 399.135A10.656 10.656 0 0 0 0 405.333V416a21.354 21.354 0 0 0 21.333 21.333h469.334A21.354 21.354 0 0 0 512 416v-10.667a10.656 10.656 0 0 0-1.984-6.198z" opacity="1" data-original="#eaeff0"/><path fill="#2d4a60" d="M427.135 74.667H84.865A31.568 31.568 0 0 0 53.333 106.2V320h405.334V106.2a31.568 31.568 0 0 0-31.532-31.533z" opacity="1" data-original="#2d4a60"/><path fill="#263f52" d="M53.333 106.2V320h405.334L65.01 81.734A31.475 31.475 0 0 0 53.333 106.2z" opacity="1" data-original="#263f52"/><path fill="#00aae5" d="M426.667 96H85.333a10.667 10.667 0 0 0-10.667 10.667v192h362.667v-192A10.667 10.667 0 0 0 426.667 96z" opacity="1" data-original="#00aae5"/><path fill="#009ae0" d="M88.579 96h-3.246a10.667 10.667 0 0 0-10.667 10.667v192h348.755z" opacity="1" data-original="#009ae0"/><g fill="#bac2c6"><path d="M21.333 437.333h469.334A21.354 21.354 0 0 0 512 416v-10.667H0V416a21.354 21.354 0 0 0 21.333 21.333zM53.19 373.333h405.62a5.333 5.333 0 0 0 4.621-8l-16.9-29.329a10.667 10.667 0 0 0-9.242-5.341H74.71a10.667 10.667 0 0 0-9.242 5.341l-16.9 29.329a5.333 5.333 0 0 0 4.622 8zM220.456 381.082l-1.514 16A2.667 2.667 0 0 0 221.6 400h68.8a2.667 2.667 0 0 0 2.655-2.918l-1.514-16a2.667 2.667 0 0 0-2.655-2.416h-65.775a2.667 2.667 0 0 0-2.655 2.416z" fill="#bac2c6" opacity="1" data-original="#bac2c6"/></g></g></svg>