<svg xmlns="http://www.w3.org/2000/svg" viewBox="-9.5367431640625e-7 15.999423027038574 512 480.0005798339844"><g><path fill="#ffc344" d="M16 448v45.425A2.575 2.575 0 0 0 18.575 496h74.999c1.272 0 2.4-.911 2.571-2.171C97.206 486.02 103.9 480 112 480s14.794 6.019 15.854 13.829c.171 1.26 1.299 2.171 2.571 2.171h363a2.575 2.575 0 0 0 2.575-2.575V448l-240-32z" opacity="1" data-original="#ffc344"/><g fill="#feb237"><path d="M263.5 435.891c0-4.143-3.358-7.5-7.5-7.5s-7.5 3.357-7.5 7.5V496h15zM167.5 496v-60.109a7.502 7.502 0 0 0-5.83-7.313l-5.196.693a7.498 7.498 0 0 0-3.973 6.62V496zM215.5 435.891c0-4.143-3.358-7.5-7.5-7.5s-7.5 3.357-7.5 7.5V496h15zM104.5 481.864c2.237-1.189 4.79-1.863 7.5-1.863s5.263.674 7.5 1.863v-45.973c0-.573-.064-1.13-.186-1.666L104.5 436.2zM56.5 496h15v-55.4l-15 2zM455.5 442.6l-15-2V496h15zM407.5 436.2l-14.814-1.975a7.495 7.495 0 0 0-.186 1.666V496h15zM359.5 435.891a7.497 7.497 0 0 0-3.973-6.62l-5.196-.693a7.503 7.503 0 0 0-5.83 7.313V496h15v-60.109zM311.5 435.891c0-4.143-3.358-7.5-7.5-7.5s-7.5 3.357-7.5 7.5V496h15z" fill="#feb237" opacity="1" data-original="#feb237"/></g><path fill="#80d261" d="M480 344c0-16.511 10.004-30.686 24.282-36.793 4.704-2.012 7.718-6.676 7.718-11.792v-42.537c0-7.112-5.765-12.877-12.877-12.877H12.877C5.765 240 0 245.766 0 252.878v42.537c0 5.116 3.015 9.78 7.718 11.792C21.996 313.314 32 327.489 32 344s-10.004 30.686-24.282 36.793C3.015 382.805 0 387.47 0 392.586v42.537C0 442.235 5.765 448 12.877 448h486.245c7.112 0 12.877-5.765 12.877-12.877v-42.537c0-5.116-3.015-9.78-7.718-11.792C490.004 374.686 480 360.512 480 344z" opacity="1" data-original="#80d261"/><path fill="#68ca44" d="M504.282 307.207c4.704-2.012 7.718-6.676 7.718-11.793v-42.537c0-7.112-5.765-12.877-12.877-12.877h-32.451v150.6c0 20.322-16.475 36.797-36.797 36.797H0v7.726C0 442.235 5.765 448 12.877 448h486.245c7.112 0 12.877-5.765 12.877-12.877v-42.537c0-5.116-3.015-9.78-7.718-11.792C490.004 374.686 480 360.512 480 344s10.004-30.686 24.282-36.793z" opacity="1" data-original="#68ca44"/><path fill="#01c0fa" d="M256 16c-30.878 0-56 25.122-56 56v120c0 8.837 7.163 16 16 16s16-7.163 16-16v-64h48v64c0 8.837 7.163 16 16 16s16-7.163 16-16V72c0-30.878-25.122-56-56-56zm-24 80V72c0-13.234 10.766-24 24-24s24 10.766 24 24v24zM152 72c0-30.878-25.122-56-56-56H56c-8.837 0-16 7.163-16 16v160c0 8.837 7.163 16 16 16s16-7.163 16-16v-64h24c13.234 0 24 10.766 24 24v40c0 8.837 7.163 16 16 16s16-7.163 16-16v-40c0-15.658-6.467-29.828-16.862-40C145.533 101.828 152 87.658 152 72zM72 96V48h24c13.234 0 24 10.766 24 24s-10.766 24-24 24zM462.123 17.218a16.002 16.002 0 0 0-17.437 3.468L416 49.373l-28.686-28.687A16 16 0 0 0 360 32v160c0 8.837 7.163 16 16 16s16-7.163 16-16V70.628l12.686 12.687c6.249 6.248 16.379 6.248 22.628 0L440 70.628V192c0 8.837 7.163 16 16 16s16-7.163 16-16V32a16 16 0 0 0-9.877-14.782z" opacity="1" data-original="#01c0fa"/><g fill="#dff6fd"><path d="M91.19 295.5H64c-4.142 0-7.5-3.357-7.5-7.5s3.358-7.5 7.5-7.5h27.19c4.142 0 7.5 3.357 7.5 7.5s-3.357 7.5-7.5 7.5zM91.19 327.5H64c-4.142 0-7.5-3.357-7.5-7.5s3.358-7.5 7.5-7.5h27.19c4.142 0 7.5 3.357 7.5 7.5s-3.357 7.5-7.5 7.5zM91.19 359.5H64c-4.142 0-7.5-3.357-7.5-7.5s3.358-7.5 7.5-7.5h27.19c4.142 0 7.5 3.357 7.5 7.5s-3.357 7.5-7.5 7.5zM91.19 391.5H64c-4.142 0-7.5-3.357-7.5-7.5s3.358-7.5 7.5-7.5h27.19c4.142 0 7.5 3.357 7.5 7.5s-3.357 7.5-7.5 7.5zM160 295.5h-34.592c-4.142 0-7.5-3.357-7.5-7.5s3.358-7.5 7.5-7.5H160c4.142 0 7.5 3.357 7.5 7.5s-3.358 7.5-7.5 7.5zM160 327.5h-34.592c-4.142 0-7.5-3.357-7.5-7.5s3.358-7.5 7.5-7.5H160c4.142 0 7.5 3.357 7.5 7.5s-3.358 7.5-7.5 7.5zM160 359.5h-34.592c-4.142 0-7.5-3.357-7.5-7.5s3.358-7.5 7.5-7.5H160c4.142 0 7.5 3.357 7.5 7.5s-3.358 7.5-7.5 7.5zM160 391.5h-34.592c-4.142 0-7.5-3.357-7.5-7.5s3.358-7.5 7.5-7.5H160c4.142 0 7.5 3.357 7.5 7.5s-3.358 7.5-7.5 7.5z" fill="#dff6fd" opacity="1" data-original="#dff6fd"/></g><path fill="#0055a3" d="M131.123 400H92.877C85.765 400 80 394.235 80 387.123V284.878C80 277.766 85.765 272 92.877 272h38.245c7.112 0 12.877 5.765 12.877 12.877v102.245C144 394.235 138.235 400 131.123 400z" opacity="1" data-original="#0055a3"/><path fill="#dff6fd" d="M235.19 295.5H208c-4.142 0-7.5-3.357-7.5-7.5s3.358-7.5 7.5-7.5h27.19c4.142 0 7.5 3.357 7.5 7.5s-3.357 7.5-7.5 7.5zM235.19 327.5H208c-4.142 0-7.5-3.357-7.5-7.5s3.358-7.5 7.5-7.5h27.19c4.142 0 7.5 3.357 7.5 7.5s-3.357 7.5-7.5 7.5zM235.19 359.5H208c-4.142 0-7.5-3.357-7.5-7.5s3.358-7.5 7.5-7.5h27.19c4.142 0 7.5 3.357 7.5 7.5s-3.357 7.5-7.5 7.5zM235.19 391.5H208c-4.142 0-7.5-3.357-7.5-7.5s3.358-7.5 7.5-7.5h27.19c4.142 0 7.5 3.357 7.5 7.5s-3.357 7.5-7.5 7.5zM304 295.5h-34.592c-4.142 0-7.5-3.357-7.5-7.5s3.358-7.5 7.5-7.5H304c4.142 0 7.5 3.357 7.5 7.5s-3.358 7.5-7.5 7.5zM304 327.5h-34.592c-4.142 0-7.5-3.357-7.5-7.5s3.358-7.5 7.5-7.5H304c4.142 0 7.5 3.357 7.5 7.5s-3.358 7.5-7.5 7.5zM304 359.5h-34.592c-4.142 0-7.5-3.357-7.5-7.5s3.358-7.5 7.5-7.5H304c4.142 0 7.5 3.357 7.5 7.5s-3.358 7.5-7.5 7.5zM304 391.5h-34.592c-4.142 0-7.5-3.357-7.5-7.5s3.358-7.5 7.5-7.5H304c4.142 0 7.5 3.357 7.5 7.5s-3.358 7.5-7.5 7.5z" opacity="1" data-original="#dff6fd"/><path fill="#0055a3" d="M275.123 400h-38.245c-7.112 0-12.877-5.765-12.877-12.877V284.878c0-7.112 5.765-12.877 12.877-12.877h38.245c7.112 0 12.877 5.765 12.877 12.877v102.245c0 7.112-5.765 12.877-12.877 12.877z" opacity="1" data-original="#0055a3"/><path fill="#dff6fd" d="M379.19 295.5H352c-4.142 0-7.5-3.357-7.5-7.5s3.358-7.5 7.5-7.5h27.19c4.142 0 7.5 3.357 7.5 7.5s-3.357 7.5-7.5 7.5zM379.19 327.5H352c-4.142 0-7.5-3.357-7.5-7.5s3.358-7.5 7.5-7.5h27.19c4.142 0 7.5 3.357 7.5 7.5s-3.357 7.5-7.5 7.5zM379.19 359.5H352c-4.142 0-7.5-3.357-7.5-7.5s3.358-7.5 7.5-7.5h27.19c4.142 0 7.5 3.357 7.5 7.5s-3.357 7.5-7.5 7.5zM379.19 391.5H352c-4.142 0-7.5-3.357-7.5-7.5s3.358-7.5 7.5-7.5h27.19c4.142 0 7.5 3.357 7.5 7.5s-3.357 7.5-7.5 7.5zM448 295.5h-34.592c-4.142 0-7.5-3.357-7.5-7.5s3.358-7.5 7.5-7.5H448c4.142 0 7.5 3.357 7.5 7.5s-3.358 7.5-7.5 7.5zM448 327.5h-34.592c-4.142 0-7.5-3.357-7.5-7.5s3.358-7.5 7.5-7.5H448c4.142 0 7.5 3.357 7.5 7.5s-3.358 7.5-7.5 7.5zM448 359.5h-34.592c-4.142 0-7.5-3.357-7.5-7.5s3.358-7.5 7.5-7.5H448c4.142 0 7.5 3.357 7.5 7.5s-3.358 7.5-7.5 7.5zM448 391.5h-34.592c-4.142 0-7.5-3.357-7.5-7.5s3.358-7.5 7.5-7.5H448c4.142 0 7.5 3.357 7.5 7.5s-3.358 7.5-7.5 7.5z" opacity="1" data-original="#dff6fd"/><path fill="#0055a3" d="M419.123 400h-38.245c-7.112 0-12.877-5.765-12.877-12.877V284.878c0-7.112 5.765-12.877 12.877-12.877h38.245c7.112 0 12.877 5.765 12.877 12.877v102.245c0 7.112-5.765 12.877-12.877 12.877z" opacity="1" data-original="#0055a3"/></g></svg>