<svg xmlns="http://www.w3.org/2000/svg" version="1.1" xmlns:xlink="http://www.w3.org/1999/xlink" width="512" height="512" x="0" y="0" viewBox="0 0 512 512" style="enable-background:new 0 0 512 512" xml:space="preserve"><g><path d="M494.345 39.724H17.655C7.904 39.724 0 47.629 0 57.379v282.483h512V57.379c0-9.75-7.904-17.655-17.655-17.655zm-8.828 79.448v194.207H26.483V66.207h459.034v52.965z" style="" fill="#464655" data-original="#464655"/><path d="M26.483 313.379h459.034V119.172H26.483v194.207zM388.414 163.31v-8.828a8.829 8.829 0 0 1 8.828-8.828h52.966a8.829 8.829 0 0 1 8.828 8.828v123.587a8.829 8.829 0 0 1-8.828 8.828h-52.966a8.829 8.829 0 0 1-8.828-8.828V163.31zm-97.104 0v-8.828a8.829 8.829 0 0 1 8.828-8.828h52.966a8.829 8.829 0 0 1 8.828 8.828v123.587a8.829 8.829 0 0 1-8.828 8.828h-52.966a8.829 8.829 0 0 1-8.828-8.828V163.31zm-97.103 0v-8.828a8.829 8.829 0 0 1 8.828-8.828H256a8.829 8.829 0 0 1 8.828 8.828v123.587a8.829 8.829 0 0 1-8.828 8.828h-52.966a8.829 8.829 0 0 1-8.828-8.828V163.31zm-141.241 0v-8.828a8.829 8.829 0 0 1 8.828-8.828h97.103a8.829 8.829 0 0 1 8.828 8.828v123.587a8.829 8.829 0 0 1-8.828 8.828H61.793a8.829 8.829 0 0 1-8.828-8.828V163.31z" style="" fill="#ffffff" data-original="#ffffff"/><path d="M0 375.172c0 9.75 7.904 17.655 17.655 17.655h476.689c9.751 0 17.655-7.905 17.655-17.655v-35.31H0v35.31zm256-22.069c7.313 0 13.241 5.929 13.241 13.241s-5.929 13.241-13.241 13.241c-7.313 0-13.241-5.929-13.241-13.241s5.928-13.241 13.241-13.241z" style="" fill="#bec8dc" data-original="#bec8dc"/><path d="M177.655 454.621h156.69l-5.517-44.138H183.172z" style="" fill="#afbbd0" data-original="#afbbd0"/><path d="M176.552 454.621a8.829 8.829 0 0 0 0 17.656h158.897a8.829 8.829 0 0 0 0-17.656H176.552z" style="" fill="#bec8dc" data-original="#bec8dc"/><path d="M183.172 410.483h145.656l-2.207-17.655H185.379z" style="" fill="#96a5b9" data-original="#96a5b9"/><path d="M26.483 119.172h459.034V66.207H26.483v52.965zm397.241-35.31h35.31a8.829 8.829 0 0 1 0 17.656h-35.31a8.829 8.829 0 0 1 0-17.656zm-70.621 0h35.31a8.829 8.829 0 0 1 0 17.656h-35.31a8.829 8.829 0 0 1 0-17.656zm-70.62 0h35.31a8.829 8.829 0 0 1 0 17.656h-35.31a8.829 8.829 0 0 1 0-17.656zm-70.621 0h35.31a8.829 8.829 0 0 1 0 17.656h-35.31a8.829 8.829 0 0 1 0-17.656zm-70.621 0h35.31a8.829 8.829 0 0 1 0 17.656h-35.31a8.829 8.829 0 0 1 0-17.656zm-88.275 0h52.966a8.829 8.829 0 0 1 0 17.656H52.966a8.829 8.829 0 0 1 0-17.656z" style="" fill="#ff6469" data-original="#ff6469"/><path d="M52.966 101.517h52.966a8.829 8.829 0 0 0 0-17.656H52.966a8.829 8.829 0 0 0 0 17.656z" style="" fill="#ffdc69" data-original="#ffdc69"/><path d="M141.241 101.517h35.31a8.829 8.829 0 0 0 0-17.656h-35.31a8.829 8.829 0 0 0 0 17.656zM211.862 101.517h35.31a8.829 8.829 0 0 0 0-17.656h-35.31a8.829 8.829 0 0 0 0 17.656zM282.483 101.517h35.31a8.829 8.829 0 0 0 0-17.656h-35.31a8.829 8.829 0 0 0 0 17.656zM353.103 101.517h35.31a8.829 8.829 0 0 0 0-17.656h-35.31a8.829 8.829 0 0 0 0 17.656zM423.724 101.517h35.31a8.829 8.829 0 0 0 0-17.656h-35.31a8.829 8.829 0 0 0 0 17.656z" style="" fill="#d2555f" data-original="#d2555f"/><path d="M61.793 286.897h97.103a8.829 8.829 0 0 0 8.828-8.828V163.31a8.829 8.829 0 0 1-8.828 8.828H61.793a8.829 8.829 0 0 1-8.828-8.828v114.759a8.83 8.83 0 0 0 8.828 8.828zM203.034 286.897H256a8.829 8.829 0 0 0 8.828-8.828V163.31a8.829 8.829 0 0 1-8.828 8.828h-52.966a8.829 8.829 0 0 1-8.828-8.828v114.759a8.83 8.83 0 0 0 8.828 8.828zM300.138 286.897h52.966a8.829 8.829 0 0 0 8.828-8.828V163.31a8.829 8.829 0 0 1-8.828 8.828h-52.966a8.829 8.829 0 0 1-8.828-8.828v114.759a8.829 8.829 0 0 0 8.828 8.828zM397.241 286.897h52.966a8.829 8.829 0 0 0 8.828-8.828V163.31a8.829 8.829 0 0 1-8.828 8.828h-52.966a8.829 8.829 0 0 1-8.828-8.828v114.759a8.83 8.83 0 0 0 8.828 8.828z" style="" fill="#dee3ed" data-original="#dee3ed"/><path d="M61.793 172.138h97.103a8.829 8.829 0 0 0 8.828-8.828v-8.828a8.829 8.829 0 0 0-8.828-8.828H61.793a8.829 8.829 0 0 0-8.828 8.828v8.828a8.83 8.83 0 0 0 8.828 8.828z" style="" fill="#ffdc69" data-original="#ffdc69"/><path d="M203.034 172.138H256a8.829 8.829 0 0 0 8.828-8.828v-8.828a8.829 8.829 0 0 0-8.828-8.828h-52.966a8.829 8.829 0 0 0-8.828 8.828v8.828a8.83 8.83 0 0 0 8.828 8.828z" style="" fill="#b4e173" data-original="#b4e173"/><path d="M300.138 172.138h52.966a8.829 8.829 0 0 0 8.828-8.828v-8.828a8.829 8.829 0 0 0-8.828-8.828h-52.966a8.829 8.829 0 0 0-8.828 8.828v8.828a8.829 8.829 0 0 0 8.828 8.828z" style="" fill="#ff969b" data-original="#ff969b"/><path d="M397.241 172.138h52.966a8.829 8.829 0 0 0 8.828-8.828v-8.828a8.829 8.829 0 0 0-8.828-8.828h-52.966a8.829 8.829 0 0 0-8.828 8.828v8.828a8.83 8.83 0 0 0 8.828 8.828z" style="" fill="#a0dcf0" data-original="#a0dcf0"/><circle cx="256" cy="366.345" r="13.241" style="" fill="#96a5b9" data-original="#96a5b9"/></g></svg>