<svg xmlns="http://www.w3.org/2000/svg" viewBox="22.170005798339844 17.100000381469727 91.9699935913086 91.91000366210938"><g><path fill="#fdcc58" d="m48.95 103.73-5.27 5.28-2.24-2.24-.71-.71-.71-.71-1.53-1.53-.71-.71-.71-.71-1.53-1.53-1.41-1.41h-.01l-1.53-1.54-1.41-1.41-1.79-1.79 1.06-1.07c.39-.38.58-.88.57-1.39a1.959 1.959 0 0 0-3.34-1.38l-1.07 1.07-1.57-1.57-.7-.7-.7-.71-1.47-1.47 5.27-5.28z" opacity="1" data-original="#fdcc58"/><path fill="#5ac0a6" d="M114.14 42.34 64.91 91.56l-11.42 11.43-3.35 3.34-1.9-1.89-21.51-21.51-1.83-1.84L88.89 17.1l9.8 9.79a3.999 3.999 0 1 0 5.65 5.66z" opacity="1" data-original="#5ac0a6"/><g fill="#56b297"><path d="m36.154 80.932 49.73-49.73 16.969 16.968-49.73 49.73zM108.36 43.85c-.77.78-2.04.78-2.82 0s-.78-2.05 0-2.83 2.04-.78 2.82 0 .78 2.05 0 2.83zM33.5 82.41c-.78.78-2.05.78-2.83 0s-.78-2.05 0-2.83 2.05-.78 2.83 0 .78 2.05 0 2.83z" fill="#56b297" opacity="1" data-original="#56b297"/></g><path fill="#efbb54" d="m43.88 104.32-2.44 2.45-.71-.71-.71-.71 2.45-2.44a.996.996 0 1 1 1.41 1.41zM37.98 98.42l-2.44 2.45-1.41-1.41 2.44-2.45a.996.996 0 0 1 1.41 0c.4.39.4 1.02 0 1.41zM40.93 101.37l-2.44 2.45-.71-.71-.71-.71 2.45-2.44a.996.996 0 1 1 1.41 1.41zM35.04 95.48l-2.45 2.44-1.41-1.41 2.44-2.45c.39-.39 1.03-.39 1.42 0s.39 1.02 0 1.42zM23.64 88.97l2.44-2.45c.39-.39 1.03-.39 1.42 0s.39 1.03 0 1.42l-2.45 2.44h-.01z" opacity="1" data-original="#efbb54"/><path fill="#e5e7ea" d="m36.16 78.11 49.73-49.73 16.969 16.967-49.73 49.73z" opacity="1" data-original="#e5e7ea"/><g fill="#6699d1"><path d="m59.3 76.4-5.6-5.6c-.31-.31-.6-.44-.87-.39-.27.06-.54.22-.82.49l-.44.45c-.27.27-.44.48-.51.65s-.08.35-.01.53c.07.19.21.46.42.81l2.85 4.92-4.91-2.86c-.36-.21-.63-.34-.81-.41a.695.695 0 0 0-.53 0c-.17.08-.39.25-.66.51l-.44.45c-.28.27-.44.54-.49.81-.06.27.07.56.38.87l5.61 5.61c.27.27.54.42.79.43.26.01.48-.08.68-.28s.29-.42.28-.68c-.02-.26-.16-.52-.43-.79l-4.89-4.89 5.65 3.38c.18.11.36.21.54.31.17.1.35.17.52.22.18.05.37.05.55.01.19-.04.37-.15.54-.32.22-.22.34-.45.35-.69s-.03-.45-.12-.63-.24-.46-.46-.83l-3.38-5.65 4.89 4.89c.27.27.54.42.8.43.25.01.48-.08.67-.27.2-.2.3-.43.28-.69-.01-.25-.16-.52-.43-.79zM62.36 73.5a.98.98 0 0 0-.73-.29c-.28 0-.52.11-.73.31-.2.2-.3.44-.3.72.01.28.11.52.3.72.24.23.49.34.76.32.28-.01.51-.12.71-.32.2-.19.3-.43.31-.7.01-.28-.09-.53-.32-.76zM68.73 67.22a.711.711 0 0 0-.61-.22c-.24.03-.48.17-.73.42l-2.53 2.53c-.04-.21-.07-.39-.08-.55-.03-.4-.01-1.05.08-1.93s.14-1.51.16-1.91c.03-.39-.03-.85-.16-1.37a2.906 2.906 0 0 0-1.67-1.98c-.33-.15-.67-.22-1.02-.23-.36-.01-.7.05-1.02.17-.51.19-1.01.54-1.5 1.03-.41.41-.7.83-.89 1.25-.18.43-.27.84-.28 1.23 0 .4.07.76.21 1.11.15.34.33.62.55.84.18.18.38.28.59.28.22 0 .41-.08.57-.24.18-.19.26-.39.24-.6s-.1-.46-.24-.75-.22-.48-.24-.56c-.13-.61.02-1.13.44-1.55.2-.2.43-.34.69-.42s.52-.08.78-.02.5.2.7.4c.19.2.34.43.45.73.11.29.16.61.18.98.01.36-.02.77-.1 1.22-.05.25-.09.7-.11 1.37-.03.66-.04 1.43-.02 2.3.01.21.06.46.17.74.1.27.21.47.33.59.18.18.4.27.67.27.27-.01.53-.13.77-.37l3.56-3.56c.21-.21.31-.42.31-.64a.826.826 0 0 0-.25-.56zM77.01 58.14c-.12-.56-.4-1.06-.83-1.49-.35-.35-.72-.59-1.09-.71-.38-.12-.76-.15-1.15-.08-.39.06-.8.2-1.24.41-.43.21-.9.47-1.39.78-.4.24-.69.41-.87.5-.18.1-.37.18-.58.24s-.41.08-.59.05a.805.805 0 0 1-.48-.25c-.23-.23-.31-.54-.25-.93s.28-.77.65-1.14c.4-.4.77-.61 1.1-.64s.69.02 1.09.16c.29.08.51.13.68.12.17 0 .33-.08.5-.25.18-.18.26-.4.24-.65a.948.948 0 0 0-.28-.65 1.82 1.82 0 0 0-.72-.43c-.29-.1-.63-.13-1.02-.1s-.79.15-1.22.36c-.42.21-.85.53-1.29.97-.54.54-.94 1.1-1.18 1.66-.24.57-.31 1.11-.22 1.62.09.52.33.97.72 1.36.41.41.85.65 1.33.73.47.07.96.02 1.47-.17.5-.18 1.07-.47 1.69-.86.47-.29.86-.51 1.16-.66.31-.15.6-.23.89-.22.29 0 .56.12.79.35.3.3.41.68.34 1.14-.06.47-.31.91-.74 1.34-.3.31-.6.51-.89.6s-.56.12-.82.07c-.25-.05-.54-.14-.86-.27a1.66 1.66 0 0 0-.7-.17c-.2.01-.37.09-.52.24-.19.19-.28.41-.28.65 0 .25.09.45.27.63.29.3.7.51 1.22.62.52.12 1.04.11 1.55-.02.72-.19 1.43-.64 2.13-1.34.58-.58.99-1.18 1.22-1.8s.29-1.21.17-1.77zM83.61 51.54c-.12-.57-.4-1.06-.82-1.49-.36-.36-.73-.6-1.1-.72-.38-.11-.76-.14-1.14-.08-.39.07-.8.21-1.24.42s-.9.47-1.4.78c-.4.24-.69.4-.87.5s-.37.17-.58.24c-.21.06-.41.08-.59.05s-.34-.11-.48-.25c-.23-.23-.31-.54-.25-.93.07-.39.28-.77.66-1.14.4-.4.76-.62 1.09-.65s.69.03 1.09.17c.29.08.52.12.68.12.17 0 .34-.09.5-.25.18-.18.26-.4.25-.66a.991.991 0 0 0-.28-.64c-.19-.19-.43-.33-.72-.43-.3-.1-.64-.13-1.03-.1-.38.03-.79.15-1.22.36-.42.2-.85.53-1.29.96-.54.55-.93 1.1-1.17 1.67-.24.56-.32 1.1-.23 1.62.09.51.33.97.72 1.36.41.41.85.65 1.33.72.48.08.97.02 1.47-.16s1.07-.47 1.7-.86c.46-.3.85-.52 1.15-.67.31-.15.61-.22.9-.22.29.01.55.13.78.36.3.3.41.68.35 1.14-.07.47-.32.91-.74 1.34-.31.31-.61.51-.9.6s-.56.11-.82.07c-.25-.05-.54-.14-.85-.28-.27-.11-.5-.17-.7-.16s-.38.09-.53.24a.88.88 0 0 0-.01 1.28c.3.3.71.5 1.23.62s1.03.11 1.54-.02c.72-.2 1.43-.64 2.13-1.34.58-.58.99-1.18 1.22-1.8s.29-1.21.17-1.77zM90.29 43.9c-.12-.44-.32-.87-.6-1.29-.28-.43-.63-.85-1.06-1.28-1.28-1.29-2.61-1.88-3.98-1.77-.54.03-1.02.18-1.46.44-.44.25-.9.63-1.39 1.11l-1.87 1.87c-.31.31-.46.61-.46.88 0 .28.15.57.46.88l5.2 5.2c.23.23.44.39.62.5.18.1.38.12.59.07s.45-.21.71-.47l1.87-1.87c.33-.33.6-.64.81-.94.22-.3.39-.62.51-.94.13-.33.2-.68.22-1.04.02-.46-.04-.91-.17-1.35zm-1.9 2.29c-.1.19-.2.37-.33.52-.12.14-.3.34-.54.58l-1.08 1.08-4.81-4.81.94-.94c.44-.44.86-.77 1.27-.98.4-.22.88-.26 1.44-.12s1.19.56 1.89 1.26c.99.99 1.45 1.93 1.38 2.81-.02.2-.07.4-.16.6z" fill="#6699d1" opacity="1" data-original="#6699d1"/></g></g></svg>