<svg xmlns="http://www.w3.org/2000/svg" version="1.1" xmlns:xlink="http://www.w3.org/1999/xlink" width="512" height="512" x="0" y="0" viewBox="0 0 60 45" style="enable-background:new 0 0 512 512" xml:space="preserve"><g><g fill="none" fill-rule="nonzero"><path fill="#7f8e94" d="M9 9h48a2 2 0 0 1 2 2v26a2 2 0 0 1-2 2H9z" opacity="1" data-original="#7f8e94"/><path fill="#545c60" d="M57 9h-3a2 2 0 0 1 2 2v26a2 2 0 0 1-2 2h3a2 2 0 0 0 2-2V11a2 2 0 0 0-2-2z" opacity="1" data-original="#545c60"/><path fill="#ffdf00" d="M2 11h3v8H2a1 1 0 0 1-1-1v-6a1 1 0 0 1 1-1zM2 23h3v13H2a1 1 0 0 1-1-1V24a1 1 0 0 1 1-1z" opacity="1" data-original="#ffdf00"/><path fill="#9e9e9e" d="M3 1a2 2 0 1 0 0 4h2v37a2 2 0 1 0 4 0V3a2 2 0 0 0-2-2z" opacity="1" data-original="#9e9e9e"/><path fill="#ffdf00" d="M13 39h15v3a1 1 0 0 1-1 1H14a1 1 0 0 1-1-1z" opacity="1" data-original="#ffdf00"/><path fill="#fec108" d="M25 39v3a1 1 0 0 1-1 1h3a1 1 0 0 0 1-1v-3z" opacity="1" data-original="#fec108"/><path fill="#ffdf00" d="M32 39h25v3a1 1 0 0 1-1 1H33a1 1 0 0 1-1-1z" opacity="1" data-original="#ffdf00"/><path fill="#fec108" d="M54 39v3a1 1 0 0 1-1 1h3a1 1 0 0 0 1-1v-3z" opacity="1" data-original="#fec108"/><path fill="#f5f5f5" d="M13 17a1 1 0 0 1-1-1v-3a1 1 0 0 1 1-1h3a1 1 0 0 1 0 2h-2v2a1 1 0 0 1-1 1z" opacity="1" data-original="#f5f5f5"/><g fill="#000"><path d="M57 8H10V3a3 3 0 0 0-3-3H3a3 3 0 1 0 0 6h1v4H2a2 2 0 0 0-2 2v6a2 2 0 0 0 2 2h2v2H2a2 2 0 0 0-2 2v11a2 2 0 0 0 2 2h2v5a3 3 0 0 0 6 0v-2h2v2a2 2 0 0 0 2 2h13a2 2 0 0 0 2-2v-2h2v2a2 2 0 0 0 2 2h23a2 2 0 0 0 2-2v-2.184A3 3 0 0 0 60 37V11a3 3 0 0 0-3-3zM2 18v-6h2v6zm0 17V24h2v11zm6 7a1 1 0 0 1-2 0V5a1 1 0 0 0-1-1H3a1 1 0 1 1 0-2h4a1 1 0 0 1 1 1zm6-2h3v2h-3zm5 2v-2h3v2zm8 0h-3v-2h3zm6-2h3v2h-3zm5 0h3v2h-3zm5 2v-2h3v2zm5 0v-2h3v2zm8 0h-3v-2h3zm2-5a1 1 0 0 1-1 1H10V10h47a1 1 0 0 1 1 1z" fill="#000000" opacity="1" data-original="#000000"/><path d="M24 19a2 2 0 0 1 2 2 1 1 0 0 0 2 0 4 4 0 1 0-8 0v6a4 4 0 1 0 8 0v-2a1 1 0 0 0-1-1h-2a1 1 0 0 0 0 2h1v1a2 2 0 1 1-4 0v-6a2 2 0 0 1 2-2zM34 17h-3a1 1 0 0 0-1 1v12a1 1 0 0 0 2 0v-5h2a4 4 0 1 0 0-8zm0 6h-2v-4h2a2 2 0 1 1 0 4zM47 17a1 1 0 0 0-1 1v9a2 2 0 1 1-4 0v-9a1 1 0 0 0-2 0v9a4 4 0 1 0 8 0v-9a1 1 0 0 0-1-1z" fill="#000000" opacity="1" data-original="#000000"/></g></g></g></svg>